<?xml version="1.0" encoding="UTF-8" standalone="no"?>
<!-- Created with Inkscape (http://www.inkscape.org/) -->

<svg
   version="1.1"
   id="svg840"
   xml:space="preserve"
   width="614.40002"
   height="460.79999"
   viewBox="0 0 614.40002 460.79999"
   sodipodi:docname="plot-circle.svg"
   inkscape:version="1.1.1 (3bf5ae0d25, 2021-09-20)"
   xmlns:inkscape="http://www.inkscape.org/namespaces/inkscape"
   xmlns:sodipodi="http://sodipodi.sourceforge.net/DTD/sodipodi-0.dtd"
   xmlns="http://www.w3.org/2000/svg"
   xmlns:svg="http://www.w3.org/2000/svg"><defs
     id="defs844"><clipPath
       clipPathUnits="userSpaceOnUse"
       id="clipPath858"><path
         d="M 57.6,38.016 H 414.72 V 304.128 H 57.6 Z"
         id="path856" /></clipPath><clipPath
       clipPathUnits="userSpaceOnUse"
       id="clipPath876"><path
         d="M 57.6,38.016 H 414.72 V 304.128 H 57.6 Z"
         id="path874" /></clipPath><clipPath
       clipPathUnits="userSpaceOnUse"
       id="clipPath894"><path
         d="M 57.6,38.016 H 414.72 V 304.128 H 57.6 Z"
         id="path892" /></clipPath><clipPath
       clipPathUnits="userSpaceOnUse"
       id="clipPath912"><path
         d="M 57.6,38.016 H 414.72 V 304.128 H 57.6 Z"
         id="path910" /></clipPath><clipPath
       clipPathUnits="userSpaceOnUse"
       id="clipPath930"><path
         d="M 57.6,38.016 H 414.72 V 304.128 H 57.6 Z"
         id="path928" /></clipPath><clipPath
       clipPathUnits="userSpaceOnUse"
       id="clipPath948"><path
         d="M 57.6,38.016 H 414.72 V 304.128 H 57.6 Z"
         id="path946" /></clipPath><clipPath
       clipPathUnits="userSpaceOnUse"
       id="clipPath966"><path
         d="M 57.6,38.016 H 414.72 V 304.128 H 57.6 Z"
         id="path964" /></clipPath><clipPath
       clipPathUnits="userSpaceOnUse"
       id="clipPath984"><path
         d="M 57.6,38.016 H 414.72 V 304.128 H 57.6 Z"
         id="path982" /></clipPath><clipPath
       clipPathUnits="userSpaceOnUse"
       id="clipPath1006"><path
         d="M 57.6,38.016 H 414.72 V 304.128 H 57.6 Z"
         id="path1004" /></clipPath><clipPath
       clipPathUnits="userSpaceOnUse"
       id="clipPath1024"><path
         d="M 57.6,38.016 H 414.72 V 304.128 H 57.6 Z"
         id="path1022" /></clipPath><clipPath
       clipPathUnits="userSpaceOnUse"
       id="clipPath1042"><path
         d="M 57.6,38.016 H 414.72 V 304.128 H 57.6 Z"
         id="path1040" /></clipPath><clipPath
       clipPathUnits="userSpaceOnUse"
       id="clipPath1060"><path
         d="M 57.6,38.016 H 414.72 V 304.128 H 57.6 Z"
         id="path1058" /></clipPath><clipPath
       clipPathUnits="userSpaceOnUse"
       id="clipPath1078"><path
         d="M 57.6,38.016 H 414.72 V 304.128 H 57.6 Z"
         id="path1076" /></clipPath><clipPath
       clipPathUnits="userSpaceOnUse"
       id="clipPath1096"><path
         d="M 57.6,38.016 H 414.72 V 304.128 H 57.6 Z"
         id="path1094" /></clipPath><clipPath
       clipPathUnits="userSpaceOnUse"
       id="clipPath1114"><path
         d="M 57.6,38.016 H 414.72 V 304.128 H 57.6 Z"
         id="path1112" /></clipPath><clipPath
       clipPathUnits="userSpaceOnUse"
       id="clipPath1132"><path
         d="M 57.6,38.016 H 414.72 V 304.128 H 57.6 Z"
         id="path1130" /></clipPath><clipPath
       clipPathUnits="userSpaceOnUse"
       id="clipPath1150"><path
         d="M 57.6,38.016 H 414.72 V 304.128 H 57.6 Z"
         id="path1148" /></clipPath><clipPath
       clipPathUnits="userSpaceOnUse"
       id="clipPath1184"><path
         d="M -1016,-351 H 1660 V 1068 H -1016 Z"
         id="path1182" /></clipPath><clipPath
       clipPathUnits="userSpaceOnUse"
       id="clipPath1196"><path
         d="M 57.6,38.016 H 414.72 V 304.128 H 57.6 Z"
         id="path1194" /></clipPath><clipPath
       clipPathUnits="userSpaceOnUse"
       id="clipPath1206"><path
         d="M 57.6,38.016 H 414.72 V 304.128 H 57.6 Z"
         id="path1204" /></clipPath><clipPath
       clipPathUnits="userSpaceOnUse"
       id="clipPath1216"><path
         d="M 57.6,38.016 H 414.72 V 304.128 H 57.6 Z"
         id="path1214" /></clipPath><clipPath
       clipPathUnits="userSpaceOnUse"
       id="clipPath1226"><path
         d="M 57.6,38.016 H 414.72 V 304.128 H 57.6 Z"
         id="path1224" /></clipPath><clipPath
       clipPathUnits="userSpaceOnUse"
       id="clipPath1236"><path
         d="M 57.6,38.016 H 414.72 V 304.128 H 57.6 Z"
         id="path1234" /></clipPath><clipPath
       clipPathUnits="userSpaceOnUse"
       id="clipPath1246"><path
         d="M 57.6,38.016 H 414.72 V 304.128 H 57.6 Z"
         id="path1244" /></clipPath><clipPath
       clipPathUnits="userSpaceOnUse"
       id="clipPath1256"><path
         d="M 57.6,38.016 H 414.72 V 304.128 H 57.6 Z"
         id="path1254" /></clipPath><clipPath
       clipPathUnits="userSpaceOnUse"
       id="clipPath1266"><path
         d="M 57.6,38.016 H 414.72 V 304.128 H 57.6 Z"
         id="path1264" /></clipPath></defs><sodipodi:namedview
     id="namedview842"
     pagecolor="#ffffff"
     bordercolor="#111111"
     borderopacity="1"
     inkscape:pageshadow="0"
     inkscape:pageopacity="0"
     inkscape:pagecheckerboard="1"
     showgrid="false"
     inkscape:zoom="0.97829033"
     inkscape:cx="303.59086"
     inkscape:cy="229.99307"
     inkscape:window-width="1366"
     inkscape:window-height="744"
     inkscape:window-x="0"
     inkscape:window-y="0"
     inkscape:window-maximized="1"
     inkscape:current-layer="g846" /><g
     id="g846"
     inkscape:groupmode="layer"
     inkscape:label="plot"
     transform="matrix(1.3333333,0,0,-1.3333333,0,460.8)"><path
       d="M 0,0 H 460.8 V 345.6 H 0 Z"
       style="fill:#ffffff;fill-opacity:1;fill-rule:nonzero;stroke:none"
       id="path848" /><path
       d="M 57.6,38.016 H 414.72 V 304.128 H 57.6 Z"
       style="fill:#ffffff;fill-opacity:1;fill-rule:nonzero;stroke:none"
       id="path850" /><g
       id="g852"><g
         id="g854"
         clip-path="url(#clipPath858)"><path
           d="M 57.6,38.016 V 304.128"
           style="fill:none;stroke:#b0b0b0;stroke-width:0.8;stroke-linecap:square;stroke-linejoin:round;stroke-miterlimit:10;stroke-dasharray:none;stroke-opacity:1"
           id="path860" /></g></g><g
       id="g862"><path
         d="m 57.6,38.016 v -3.5"
         style="fill:#191970;fill-opacity:1;fill-rule:nonzero;stroke:#191970;stroke-width:0.8;stroke-linecap:butt;stroke-linejoin:round;stroke-miterlimit:10;stroke-dasharray:none;stroke-opacity:1"
         id="path864" /><text
         transform="matrix(1,0,0,-1,53.396875,20.67225)"
         style="font-variant:normal;font-weight:normal;font-size:14px;font-family:'Fira Mono';-inkscape-font-specification:FiraMono-Regular;writing-mode:lr-tb;fill:#191970;fill-opacity:1;fill-rule:nonzero;stroke:none"
         id="text868"><tspan
           x="0"
           y="0"
           id="tspan866">0</tspan></text></g><g
       id="g870"><g
         id="g872"
         clip-path="url(#clipPath876)"><path
           d="M 108.61714,38.016 V 304.128"
           style="fill:none;stroke:#b0b0b0;stroke-width:0.8;stroke-linecap:square;stroke-linejoin:round;stroke-miterlimit:10;stroke-dasharray:none;stroke-opacity:1"
           id="path878" /></g></g><g
       id="g880"><path
         d="m 108.61714,38.016 v -3.5"
         style="fill:#191970;fill-opacity:1;fill-rule:nonzero;stroke:#191970;stroke-width:0.8;stroke-linecap:butt;stroke-linejoin:round;stroke-miterlimit:10;stroke-dasharray:none;stroke-opacity:1"
         id="path882" /><text
         transform="matrix(1,0,0,-1,96.007768,20.67225)"
         style="font-variant:normal;font-weight:normal;font-size:14px;font-family:'Fira Mono';-inkscape-font-specification:FiraMono-Regular;writing-mode:lr-tb;fill:#191970;fill-opacity:1;fill-rule:nonzero;stroke:none"
         id="text886"><tspan
           x="0 8.3999996 16.799999"
           y="0"
           sodipodi:role="line"
           id="tspan884">50K</tspan></text></g><g
       id="g888"><g
         id="g890"
         clip-path="url(#clipPath894)"><path
           d="M 159.63429,38.016 V 304.128"
           style="fill:none;stroke:#b0b0b0;stroke-width:0.8;stroke-linecap:square;stroke-linejoin:round;stroke-miterlimit:10;stroke-dasharray:none;stroke-opacity:1"
           id="path896" /></g></g><g
       id="g898"><path
         d="m 159.63429,38.016 v -3.5"
         style="fill:#191970;fill-opacity:1;fill-rule:nonzero;stroke:#191970;stroke-width:0.8;stroke-linecap:butt;stroke-linejoin:round;stroke-miterlimit:10;stroke-dasharray:none;stroke-opacity:1"
         id="path900" /><text
         transform="matrix(1,0,0,-1,142.82179,20.67225)"
         style="font-variant:normal;font-weight:normal;font-size:14px;font-family:'Fira Mono';-inkscape-font-specification:FiraMono-Regular;writing-mode:lr-tb;fill:#191970;fill-opacity:1;fill-rule:nonzero;stroke:none"
         id="text904"><tspan
           x="0 8.3999996 16.799999 25.200001"
           y="0"
           sodipodi:role="line"
           id="tspan902">100K</tspan></text></g><g
       id="g906"><g
         id="g908"
         clip-path="url(#clipPath912)"><path
           d="M 210.65143,38.016 V 304.128"
           style="fill:none;stroke:#b0b0b0;stroke-width:0.8;stroke-linecap:square;stroke-linejoin:round;stroke-miterlimit:10;stroke-dasharray:none;stroke-opacity:1"
           id="path914" /></g></g><g
       id="g916"><path
         d="m 210.65143,38.016 v -3.5"
         style="fill:#191970;fill-opacity:1;fill-rule:nonzero;stroke:#191970;stroke-width:0.8;stroke-linecap:butt;stroke-linejoin:round;stroke-miterlimit:10;stroke-dasharray:none;stroke-opacity:1"
         id="path918" /><text
         transform="matrix(1,0,0,-1,193.83893,20.67225)"
         style="font-variant:normal;font-weight:normal;font-size:14px;font-family:'Fira Mono';-inkscape-font-specification:FiraMono-Regular;writing-mode:lr-tb;fill:#191970;fill-opacity:1;fill-rule:nonzero;stroke:none"
         id="text922"><tspan
           x="0 8.3999996 16.799999 25.200001"
           y="0"
           sodipodi:role="line"
           id="tspan920">150K</tspan></text></g><g
       id="g924"><g
         id="g926"
         clip-path="url(#clipPath930)"><path
           d="M 261.66857,38.016 V 304.128"
           style="fill:none;stroke:#b0b0b0;stroke-width:0.8;stroke-linecap:square;stroke-linejoin:round;stroke-miterlimit:10;stroke-dasharray:none;stroke-opacity:1"
           id="path932" /></g></g><g
       id="g934"><path
         d="m 261.66857,38.016 v -3.5"
         style="fill:#191970;fill-opacity:1;fill-rule:nonzero;stroke:#191970;stroke-width:0.8;stroke-linecap:butt;stroke-linejoin:round;stroke-miterlimit:10;stroke-dasharray:none;stroke-opacity:1"
         id="path936" /><text
         transform="matrix(1,0,0,-1,244.85607,20.67225)"
         style="font-variant:normal;font-weight:normal;font-size:14px;font-family:'Fira Mono';-inkscape-font-specification:FiraMono-Regular;writing-mode:lr-tb;fill:#191970;fill-opacity:1;fill-rule:nonzero;stroke:none"
         id="text940"><tspan
           x="0 8.3999996 16.799999 25.200001"
           y="0"
           sodipodi:role="line"
           id="tspan938">200K</tspan></text></g><g
       id="g942"><g
         id="g944"
         clip-path="url(#clipPath948)"><path
           d="M 312.68571,38.016 V 304.128"
           style="fill:none;stroke:#b0b0b0;stroke-width:0.8;stroke-linecap:square;stroke-linejoin:round;stroke-miterlimit:10;stroke-dasharray:none;stroke-opacity:1"
           id="path950" /></g></g><g
       id="g952"><path
         d="m 312.68571,38.016 v -3.5"
         style="fill:#191970;fill-opacity:1;fill-rule:nonzero;stroke:#191970;stroke-width:0.8;stroke-linecap:butt;stroke-linejoin:round;stroke-miterlimit:10;stroke-dasharray:none;stroke-opacity:1"
         id="path954" /><text
         transform="matrix(1,0,0,-1,295.87321,20.67225)"
         style="font-variant:normal;font-weight:normal;font-size:14px;font-family:'Fira Mono';-inkscape-font-specification:FiraMono-Regular;writing-mode:lr-tb;fill:#191970;fill-opacity:1;fill-rule:nonzero;stroke:none"
         id="text958"><tspan
           x="0 8.3999996 16.799999 25.200001"
           y="0"
           sodipodi:role="line"
           id="tspan956">250K</tspan></text></g><g
       id="g960"><g
         id="g962"
         clip-path="url(#clipPath966)"><path
           d="M 363.70286,38.016 V 304.128"
           style="fill:none;stroke:#b0b0b0;stroke-width:0.8;stroke-linecap:square;stroke-linejoin:round;stroke-miterlimit:10;stroke-dasharray:none;stroke-opacity:1"
           id="path968" /></g></g><g
       id="g970"><path
         d="m 363.70286,38.016 v -3.5"
         style="fill:#191970;fill-opacity:1;fill-rule:nonzero;stroke:#191970;stroke-width:0.8;stroke-linecap:butt;stroke-linejoin:round;stroke-miterlimit:10;stroke-dasharray:none;stroke-opacity:1"
         id="path972" /><text
         transform="matrix(1,0,0,-1,346.89036,20.67225)"
         style="font-variant:normal;font-weight:normal;font-size:14px;font-family:'Fira Mono';-inkscape-font-specification:FiraMono-Regular;writing-mode:lr-tb;fill:#191970;fill-opacity:1;fill-rule:nonzero;stroke:none"
         id="text976"><tspan
           x="0 8.3999996 16.799999 25.200001"
           y="0"
           sodipodi:role="line"
           id="tspan974">300K</tspan></text></g><g
       id="g978"><g
         id="g980"
         clip-path="url(#clipPath984)"><path
           d="M 414.72,38.016 V 304.128"
           style="fill:none;stroke:#b0b0b0;stroke-width:0.8;stroke-linecap:square;stroke-linejoin:round;stroke-miterlimit:10;stroke-dasharray:none;stroke-opacity:1"
           id="path986" /></g></g><g
       id="g988"><path
         d="m 414.72,38.016 v -3.5"
         style="fill:#191970;fill-opacity:1;fill-rule:nonzero;stroke:#191970;stroke-width:0.8;stroke-linecap:butt;stroke-linejoin:round;stroke-miterlimit:10;stroke-dasharray:none;stroke-opacity:1"
         id="path990" /><text
         transform="matrix(1,0,0,-1,397.9075,20.67225)"
         style="font-variant:normal;font-weight:normal;font-size:14px;font-family:'Fira Mono';-inkscape-font-specification:FiraMono-Regular;writing-mode:lr-tb;fill:#191970;fill-opacity:1;fill-rule:nonzero;stroke:none"
         id="text994"><tspan
           x="0 8.3999996 16.799999 25.200001"
           y="0"
           sodipodi:role="line"
           id="tspan992">350K</tspan></text><text
         transform="matrix(1,0,0,-1,202.535,3.35975)"
         style="font-variant:normal;font-weight:normal;font-size:14px;font-family:'Fira Mono';-inkscape-font-specification:FiraMono-Regular;writing-mode:lr-tb;fill:#191970;fill-opacity:1;fill-rule:nonzero;stroke:none"
         id="text998"><tspan
           x="0 8.3999996 16.799999 25.200001 33.599998 42 50.400002 58.799999"
           y="0"
           sodipodi:role="line"
           id="tspan996"># of FFs</tspan></text></g><g
       id="g1000"><g
         id="g1002"
         clip-path="url(#clipPath1006)"><path
           d="M 57.6,38.016 H 414.72"
           style="fill:none;stroke:#b0b0b0;stroke-width:0.8;stroke-linecap:square;stroke-linejoin:round;stroke-miterlimit:10;stroke-dasharray:none;stroke-opacity:1"
           id="path1008" /></g></g><g
       id="g1010"><path
         d="M 57.6,38.016 H 54.1"
         style="fill:#191970;fill-opacity:1;fill-rule:nonzero;stroke:#191970;stroke-width:0.8;stroke-linecap:butt;stroke-linejoin:round;stroke-miterlimit:10;stroke-dasharray:none;stroke-opacity:1"
         id="path1012" /><text
         transform="matrix(1,0,0,-1,42.19375,32.844125)"
         style="font-variant:normal;font-weight:normal;font-size:14px;font-family:'Fira Mono';-inkscape-font-specification:FiraMono-Regular;writing-mode:lr-tb;fill:#191970;fill-opacity:1;fill-rule:nonzero;stroke:none"
         id="text1016"><tspan
           x="0"
           y="0"
           id="tspan1014">0</tspan></text></g><g
       id="g1018"><g
         id="g1020"
         clip-path="url(#clipPath1024)"><path
           d="M 57.6,71.28 H 414.72"
           style="fill:none;stroke:#b0b0b0;stroke-width:0.8;stroke-linecap:square;stroke-linejoin:round;stroke-miterlimit:10;stroke-dasharray:none;stroke-opacity:1"
           id="path1026" /></g></g><g
       id="g1028"><path
         d="M 57.6,71.28 H 54.1"
         style="fill:#191970;fill-opacity:1;fill-rule:nonzero;stroke:#191970;stroke-width:0.8;stroke-linecap:butt;stroke-linejoin:round;stroke-miterlimit:10;stroke-dasharray:none;stroke-opacity:1"
         id="path1030" /><text
         transform="matrix(1,0,0,-1,33.7875,66.108125)"
         style="font-variant:normal;font-weight:normal;font-size:14px;font-family:'Fira Mono';-inkscape-font-specification:FiraMono-Regular;writing-mode:lr-tb;fill:#191970;fill-opacity:1;fill-rule:nonzero;stroke:none"
         id="text1034"><tspan
           x="0 8.3999996"
           y="0"
           sodipodi:role="line"
           id="tspan1032">50</tspan></text></g><g
       id="g1036"><g
         id="g1038"
         clip-path="url(#clipPath1042)"><path
           d="M 57.6,104.544 H 414.72"
           style="fill:none;stroke:#b0b0b0;stroke-width:0.8;stroke-linecap:square;stroke-linejoin:round;stroke-miterlimit:10;stroke-dasharray:none;stroke-opacity:1"
           id="path1044" /></g></g><g
       id="g1046"><path
         d="M 57.6,104.544 H 54.1"
         style="fill:#191970;fill-opacity:1;fill-rule:nonzero;stroke:#191970;stroke-width:0.8;stroke-linecap:butt;stroke-linejoin:round;stroke-miterlimit:10;stroke-dasharray:none;stroke-opacity:1"
         id="path1048" /><text
         transform="matrix(1,0,0,-1,25.38125,99.372125)"
         style="font-variant:normal;font-weight:normal;font-size:14px;font-family:'Fira Mono';-inkscape-font-specification:FiraMono-Regular;writing-mode:lr-tb;fill:#191970;fill-opacity:1;fill-rule:nonzero;stroke:none"
         id="text1052"><tspan
           x="0 8.3999996 16.799999"
           y="0"
           sodipodi:role="line"
           id="tspan1050">100</tspan></text></g><g
       id="g1054"><g
         id="g1056"
         clip-path="url(#clipPath1060)"><path
           d="M 57.6,137.808 H 414.72"
           style="fill:none;stroke:#b0b0b0;stroke-width:0.8;stroke-linecap:square;stroke-linejoin:round;stroke-miterlimit:10;stroke-dasharray:none;stroke-opacity:1"
           id="path1062" /></g></g><g
       id="g1064"><path
         d="M 57.6,137.808 H 54.1"
         style="fill:#191970;fill-opacity:1;fill-rule:nonzero;stroke:#191970;stroke-width:0.8;stroke-linecap:butt;stroke-linejoin:round;stroke-miterlimit:10;stroke-dasharray:none;stroke-opacity:1"
         id="path1066" /><text
         transform="matrix(1,0,0,-1,25.38125,132.63612)"
         style="font-variant:normal;font-weight:normal;font-size:14px;font-family:'Fira Mono';-inkscape-font-specification:FiraMono-Regular;writing-mode:lr-tb;fill:#191970;fill-opacity:1;fill-rule:nonzero;stroke:none"
         id="text1070"><tspan
           x="0 8.3999996 16.799999"
           y="0"
           sodipodi:role="line"
           id="tspan1068">150</tspan></text></g><g
       id="g1072"><g
         id="g1074"
         clip-path="url(#clipPath1078)"><path
           d="M 57.6,171.072 H 414.72"
           style="fill:none;stroke:#b0b0b0;stroke-width:0.8;stroke-linecap:square;stroke-linejoin:round;stroke-miterlimit:10;stroke-dasharray:none;stroke-opacity:1"
           id="path1080" /></g></g><g
       id="g1082"><path
         d="M 57.6,171.072 H 54.1"
         style="fill:#191970;fill-opacity:1;fill-rule:nonzero;stroke:#191970;stroke-width:0.8;stroke-linecap:butt;stroke-linejoin:round;stroke-miterlimit:10;stroke-dasharray:none;stroke-opacity:1"
         id="path1084" /><text
         transform="matrix(1,0,0,-1,25.38125,165.90012)"
         style="font-variant:normal;font-weight:normal;font-size:14px;font-family:'Fira Mono';-inkscape-font-specification:FiraMono-Regular;writing-mode:lr-tb;fill:#191970;fill-opacity:1;fill-rule:nonzero;stroke:none"
         id="text1088"><tspan
           x="0 8.3999996 16.799999"
           y="0"
           sodipodi:role="line"
           id="tspan1086">200</tspan></text></g><g
       id="g1090"><g
         id="g1092"
         clip-path="url(#clipPath1096)"><path
           d="M 57.6,204.336 H 414.72"
           style="fill:none;stroke:#b0b0b0;stroke-width:0.8;stroke-linecap:square;stroke-linejoin:round;stroke-miterlimit:10;stroke-dasharray:none;stroke-opacity:1"
           id="path1098" /></g></g><g
       id="g1100"><path
         d="M 57.6,204.336 H 54.1"
         style="fill:#191970;fill-opacity:1;fill-rule:nonzero;stroke:#191970;stroke-width:0.8;stroke-linecap:butt;stroke-linejoin:round;stroke-miterlimit:10;stroke-dasharray:none;stroke-opacity:1"
         id="path1102" /><text
         transform="matrix(1,0,0,-1,25.38125,199.16412)"
         style="font-variant:normal;font-weight:normal;font-size:14px;font-family:'Fira Mono';-inkscape-font-specification:FiraMono-Regular;writing-mode:lr-tb;fill:#191970;fill-opacity:1;fill-rule:nonzero;stroke:none"
         id="text1106"><tspan
           x="0 8.3999996 16.799999"
           y="0"
           sodipodi:role="line"
           id="tspan1104">250</tspan></text></g><g
       id="g1108"><g
         id="g1110"
         clip-path="url(#clipPath1114)"><path
           d="M 57.6,237.6 H 414.72"
           style="fill:none;stroke:#b0b0b0;stroke-width:0.8;stroke-linecap:square;stroke-linejoin:round;stroke-miterlimit:10;stroke-dasharray:none;stroke-opacity:1"
           id="path1116" /></g></g><g
       id="g1118"><path
         d="M 57.6,237.6 H 54.1"
         style="fill:#191970;fill-opacity:1;fill-rule:nonzero;stroke:#191970;stroke-width:0.8;stroke-linecap:butt;stroke-linejoin:round;stroke-miterlimit:10;stroke-dasharray:none;stroke-opacity:1"
         id="path1120" /><text
         transform="matrix(1,0,0,-1,25.38125,232.42813)"
         style="font-variant:normal;font-weight:normal;font-size:14px;font-family:'Fira Mono';-inkscape-font-specification:FiraMono-Regular;writing-mode:lr-tb;fill:#191970;fill-opacity:1;fill-rule:nonzero;stroke:none"
         id="text1124"><tspan
           x="0 8.3999996 16.799999"
           y="0"
           sodipodi:role="line"
           id="tspan1122">300</tspan></text></g><g
       id="g1126"><g
         id="g1128"
         clip-path="url(#clipPath1132)"><path
           d="M 57.6,270.864 H 414.72"
           style="fill:none;stroke:#b0b0b0;stroke-width:0.8;stroke-linecap:square;stroke-linejoin:round;stroke-miterlimit:10;stroke-dasharray:none;stroke-opacity:1"
           id="path1134" /></g></g><g
       id="g1136"><path
         d="M 57.6,270.864 H 54.1"
         style="fill:#191970;fill-opacity:1;fill-rule:nonzero;stroke:#191970;stroke-width:0.8;stroke-linecap:butt;stroke-linejoin:round;stroke-miterlimit:10;stroke-dasharray:none;stroke-opacity:1"
         id="path1138" /><text
         transform="matrix(1,0,0,-1,25.38125,265.69212)"
         style="font-variant:normal;font-weight:normal;font-size:14px;font-family:'Fira Mono';-inkscape-font-specification:FiraMono-Regular;writing-mode:lr-tb;fill:#191970;fill-opacity:1;fill-rule:nonzero;stroke:none"
         id="text1142"><tspan
           x="0 8.3999996 16.799999"
           y="0"
           sodipodi:role="line"
           id="tspan1140">350</tspan></text></g><g
       id="g1144"><g
         id="g1146"
         clip-path="url(#clipPath1150)"><path
           d="M 57.6,304.128 H 414.72"
           style="fill:none;stroke:#b0b0b0;stroke-width:0.8;stroke-linecap:square;stroke-linejoin:round;stroke-miterlimit:10;stroke-dasharray:none;stroke-opacity:1"
           id="path1152" /></g></g><g
       id="g1154"><path
         d="M 57.6,304.128 H 54.1"
         style="fill:#191970;fill-opacity:1;fill-rule:nonzero;stroke:#191970;stroke-width:0.8;stroke-linecap:butt;stroke-linejoin:round;stroke-miterlimit:10;stroke-dasharray:none;stroke-opacity:1"
         id="path1156" /><text
         transform="matrix(1,0,0,-1,25.38125,298.95612)"
         style="font-variant:normal;font-weight:normal;font-size:14px;font-family:'Fira Mono';-inkscape-font-specification:FiraMono-Regular;writing-mode:lr-tb;fill:#191970;fill-opacity:1;fill-rule:nonzero;stroke:none"
         id="text1160"><tspan
           x="0 8.3999996 16.799999"
           y="0"
           sodipodi:role="line"
           id="tspan1158">400</tspan></text><g
         id="g1162"
         transform="rotate(90,-36.345375,54.726625)"><text
           transform="matrix(1,0,0,-1,0,0.59375)"
           style="font-variant:normal;font-weight:normal;font-size:14px;font-family:'Fira Mono';-inkscape-font-specification:FiraMono-Regular;writing-mode:lr-tb;fill:#191970;fill-opacity:1;fill-rule:nonzero;stroke:none"
           id="text1166"><tspan
             x="0 8.3999939 16.799988 25.199982 33.599976 41.999969 50.399963 58.799957 67.199951 75.599945 83.999939 92.399933 100.79993 109.19992 117.59991 125.99991"
             y="0"
             sodipodi:role="line"
             id="tspan1164">Execution time [</tspan></text><text
           transform="matrix(1,0,0,-1,143.30713,0.59375)"
           style="font-style:italic;font-variant:normal;font-size:14px;font-family:'DejaVu Sans';-inkscape-font-specification:DejaVuSans-Oblique;writing-mode:lr-tb;fill:#191970;fill-opacity:1;fill-rule:nonzero;stroke:none"
           id="text1170"><tspan
             x="0"
             y="0"
             id="tspan1168">s</tspan></text><text
           transform="matrix(1,0,0,-1,150.60107,0.59375)"
           style="font-variant:normal;font-weight:normal;font-size:14px;font-family:'Fira Mono';-inkscape-font-specification:FiraMono-Regular;writing-mode:lr-tb;fill:#191970;fill-opacity:1;fill-rule:nonzero;stroke:none"
           id="text1174"><tspan
             x="0"
             y="0"
             id="tspan1172">]</tspan></text><g
           id="g1176"
           transform="matrix(0.014,0,0,0.014,134.3999,0.59375)"><g
             id="g1178"><g
               id="g1180"
               clip-path="url(#clipPath1184)"><g
                 id="g1186"><path
                   d="m -12,-207 146,754 h 90 L 158,207 c -2,-8 -3,-16 -4,-24 -1,-8 -1,-17 -1,-25 0,-30 9,-54 28,-70 19,-16 46,-24 82,-24 48,0 86,13 116,41 30,27 50,68 61,123 l 62,319 h 90 L 510,126 c -2,-6 -3,-12 -3,-16 0,-4 0,-8 0,-12 0,-10 2,-18 6,-22 4,-5 10,-7 19,-7 3,0 7,0 13,2 6,2 14,5 25,9 L 556,8 C 542,1 528,-3 515,-7 c -13,-4 -26,-6 -38,-6 -22,0 -39,7 -51,20 C 414,20 408,39 408,63 390,37 368,17 343,5 317,-7 288,-13 254,-13 223,-13 196,-6 174,7 152,21 137,39 130,62 L 77,-207 h -89"
                   style="fill:#191970;fill-opacity:1;fill-rule:nonzero;stroke:none"
                   id="path1188" /></g></g></g></g></g></g><g
       id="g1190"><g
         id="g1192"
         clip-path="url(#clipPath1196)"><path
           d="m 62.394591,297.14123 35.887499,-82.67568 11.35948,-83.99293 25.23308,-44.810597 65.84782,-21.435322 199.71579,-6.01147"
           style="fill:none;stroke:#000000;stroke-width:0.5;stroke-linecap:square;stroke-linejoin:round;stroke-miterlimit:10;stroke-dasharray:none;stroke-opacity:1"
           id="path1198" /></g></g><g
       id="g1200"><g
         id="g1202"
         clip-path="url(#clipPath1206)"><path
           d="m 62.394591,300.14123 -3,-6 h 6 z"
           style="fill:#1f77b4;fill-opacity:1;fill-rule:nonzero;stroke:#1f77b4;stroke-width:1;stroke-linecap:butt;stroke-linejoin:miter;stroke-miterlimit:10;stroke-dasharray:none;stroke-opacity:1"
           id="path1208" /></g></g><g
       id="g1210"><g
         id="g1212"
         clip-path="url(#clipPath1216)"><path
           d="m 98.28209,211.46555 c 0.795609,0 1.55874,0.3161 2.12132,0.87868 0.56258,0.56258 0.87868,1.32571 0.87868,2.12132 0,0.79561 -0.3161,1.55874 -0.87868,2.12132 -0.56258,0.56258 -1.325711,0.87868 -2.12132,0.87868 -0.795609,0 -1.55874,-0.3161 -2.12132,-0.87868 -0.562581,-0.56258 -0.87868,-1.32571 -0.87868,-2.12132 0,-0.79561 0.316099,-1.55874 0.87868,-2.12132 0.56258,-0.56258 1.325711,-0.87868 2.12132,-0.87868 z"
           style="fill:#ff7f0e;fill-opacity:1;fill-rule:nonzero;stroke:#ff7f0e;stroke-width:1;stroke-linecap:butt;stroke-linejoin:round;stroke-miterlimit:10;stroke-dasharray:none;stroke-opacity:1"
           id="path1218" /></g></g><g
       id="g1220"><g
         id="g1222"
         clip-path="url(#clipPath1226)"><path
           d="m 106.2173,187.49152 c 0.79561,0 1.55874,0.3161 2.12132,0.87868 0.56258,0.56258 0.87868,1.32571 0.87868,2.12132 0,0.79561 -0.3161,1.55874 -0.87868,2.12132 -0.56258,0.56258 -1.32571,0.87868 -2.12132,0.87868 -0.79561,0 -1.55874,-0.3161 -2.12132,-0.87868 -0.56258,-0.56258 -0.87868,-1.32571 -0.87868,-2.12132 0,-0.79561 0.3161,-1.55874 0.87868,-2.12132 0.56258,-0.56258 1.32571,-0.87868 2.12132,-0.87868 z"
           style="fill:#2ca02c;fill-opacity:1;fill-rule:nonzero;stroke:#2ca02c;stroke-width:1;stroke-linecap:butt;stroke-linejoin:round;stroke-miterlimit:10;stroke-dasharray:none;stroke-opacity:1"
           id="path1228" /></g></g><g
       id="g1230"><g
         id="g1232"
         clip-path="url(#clipPath1236)"><path
           d="m 106.64157,127.47262 h 6 v 6 h -6 z"
           style="fill:#ff7f0e;fill-opacity:1;fill-rule:nonzero;stroke:#ff7f0e;stroke-width:1;stroke-linecap:butt;stroke-linejoin:miter;stroke-miterlimit:10;stroke-dasharray:none;stroke-opacity:1"
           id="path1238" /></g></g><g
       id="g1240"><g
         id="g1242"
         clip-path="url(#clipPath1246)"><path
           d="m 131.87465,82.662023 h 6 v 6 h -6 z"
           style="fill:#2ca02c;fill-opacity:1;fill-rule:nonzero;stroke:#2ca02c;stroke-width:1;stroke-linecap:butt;stroke-linejoin:miter;stroke-miterlimit:10;stroke-dasharray:none;stroke-opacity:1"
           id="path1248" /></g></g><g
       id="g1250"><g
         id="g1252"
         clip-path="url(#clipPath1256)"><path
           d="m 197.72247,61.226701 h 6 v 6 h -6 z"
           style="fill:#d62728;fill-opacity:1;fill-rule:nonzero;stroke:#d62728;stroke-width:1;stroke-linecap:butt;stroke-linejoin:miter;stroke-miterlimit:10;stroke-dasharray:none;stroke-opacity:1"
           id="path1258" /></g></g><g
       id="g1260"><g
         id="g1262"
         clip-path="url(#clipPath1266)"><path
           d="m 397.43826,55.215231 h 6 v 6 h -6 z"
           style="fill:#9467bd;fill-opacity:1;fill-rule:nonzero;stroke:#9467bd;stroke-width:1;stroke-linecap:butt;stroke-linejoin:miter;stroke-miterlimit:10;stroke-dasharray:none;stroke-opacity:1"
           id="path1268" /></g></g><g
       id="g1270"><path
         d="M 57.6,38.016 V 304.128"
         style="fill:none;stroke:#191970;stroke-width:0.8;stroke-linecap:square;stroke-linejoin:miter;stroke-miterlimit:10;stroke-dasharray:none;stroke-opacity:1"
         id="path1272" /><path
         d="M 414.72,38.016 V 304.128"
         style="fill:none;stroke:#191970;stroke-width:0.8;stroke-linecap:square;stroke-linejoin:miter;stroke-miterlimit:10;stroke-dasharray:none;stroke-opacity:1"
         id="path1274" /><path
         d="M 57.6,38.016 H 414.72"
         style="fill:none;stroke:#191970;stroke-width:0.8;stroke-linecap:square;stroke-linejoin:miter;stroke-miterlimit:10;stroke-dasharray:none;stroke-opacity:1"
         id="path1276" /><path
         d="M 57.6,304.128 H 414.72"
         style="fill:none;stroke:#191970;stroke-width:0.8;stroke-linecap:square;stroke-linejoin:miter;stroke-miterlimit:10;stroke-dasharray:none;stroke-opacity:1"
         id="path1278" /><path
         d="M 217.21375,147.75612 H 404.92 c 1.86667,0 2.8,0.93334 2.8,2.8 V 294.328 c 0,1.86667 -0.93333,2.8 -2.8,2.8 H 217.21375 c -1.86667,0 -2.8,-0.93333 -2.8,-2.8 V 150.55612 c 0,-1.86666 0.93333,-2.8 2.8,-2.8 z"
         style="fill:#ffffff;fill-opacity:0.8;fill-rule:nonzero;stroke:#cccccc;stroke-width:1;stroke-linecap:butt;stroke-linejoin:miter;stroke-miterlimit:10;stroke-dasharray:none;stroke-opacity:0.8"
         id="path1280" /><path
         d="m 234.01375,288.94362 -3,-6 h 6 z"
         style="fill:#1f77b4;fill-opacity:1;fill-rule:nonzero;stroke:#1f77b4;stroke-width:1;stroke-linecap:butt;stroke-linejoin:miter;stroke-miterlimit:10;stroke-dasharray:none;stroke-opacity:1"
         id="path1282" /><text
         transform="matrix(1,0,0,-1,259.21375,281.04363)"
         style="font-variant:normal;font-weight:normal;font-size:14px;font-family:'Fira Mono';-inkscape-font-specification:FiraMono-Regular;writing-mode:lr-tb;fill:#191970;fill-opacity:1;fill-rule:nonzero;stroke:none"
         id="text1286"><tspan
           x="0 8.3999996 16.799999 25.200001 33.599998 42"
           y="0"
           sodipodi:role="line"
           id="tspan1284">global</tspan></text><path
         d="m 234.01375,261.20925 c 0.79561,0 1.55874,0.3161 2.12132,0.87868 0.56258,0.56258 0.87868,1.32571 0.87868,2.12132 0,0.79561 -0.3161,1.55874 -0.87868,2.12132 -0.56258,0.56258 -1.32571,0.87868 -2.12132,0.87868 -0.79561,0 -1.55874,-0.3161 -2.12132,-0.87868 -0.56258,-0.56258 -0.87868,-1.32571 -0.87868,-2.12132 0,-0.79561 0.3161,-1.55874 0.87868,-2.12132 0.56258,-0.56258 1.32571,-0.87868 2.12132,-0.87868 z"
         style="fill:#ff7f0e;fill-opacity:1;fill-rule:nonzero;stroke:#ff7f0e;stroke-width:1;stroke-linecap:butt;stroke-linejoin:round;stroke-miterlimit:10;stroke-dasharray:none;stroke-opacity:1"
         id="path1288" /><text
         transform="matrix(1,0,0,-1,259.21375,259.30925)"
         style="font-variant:normal;font-weight:normal;font-size:14px;font-family:'Fira Mono';-inkscape-font-specification:FiraMono-Regular;writing-mode:lr-tb;fill:#191970;fill-opacity:1;fill-rule:nonzero;stroke:none"
         id="text1292"><tspan
           x="0 8.3999996 16.799999 25.200001 33.599998 42 50.400002 58.799999 67.199997 75.599998 84 92.400002 100.8 109.2 117.6 126"
           y="0"
           sodipodi:role="line"
           id="tspan1290">1-port (L2 only)</tspan></text><path
         d="m 234.01375,239.47487 c 0.79561,0 1.55874,0.3161 2.12132,0.87868 0.56258,0.56258 0.87868,1.32572 0.87868,2.12132 0,0.79561 -0.3161,1.55874 -0.87868,2.12132 -0.56258,0.56259 -1.32571,0.87868 -2.12132,0.87868 -0.79561,0 -1.55874,-0.31609 -2.12132,-0.87868 -0.56258,-0.56258 -0.87868,-1.32571 -0.87868,-2.12132 0,-0.7956 0.3161,-1.55874 0.87868,-2.12132 0.56258,-0.56258 1.32571,-0.87868 2.12132,-0.87868 z"
         style="fill:#2ca02c;fill-opacity:1;fill-rule:nonzero;stroke:#2ca02c;stroke-width:1;stroke-linecap:butt;stroke-linejoin:round;stroke-miterlimit:10;stroke-dasharray:none;stroke-opacity:1"
         id="path1294" /><text
         transform="matrix(1,0,0,-1,259.21375,237.57487)"
         style="font-variant:normal;font-weight:normal;font-size:14px;font-family:'Fira Mono';-inkscape-font-specification:FiraMono-Regular;writing-mode:lr-tb;fill:#191970;fill-opacity:1;fill-rule:nonzero;stroke:none"
         id="text1298"><tspan
           x="0 8.3999996 16.799999 25.200001 33.599998 42 50.400002 58.799999 67.199997 75.599998 84 92.400002 100.8 109.2 117.6 126 134.39999"
           y="0"
           sodipodi:role="line"
           id="tspan1296">2-ports (L2 only)</tspan></text><path
         d="m 231.01375,219.16237 h 6 v 6 h -6 z"
         style="fill:#ff7f0e;fill-opacity:1;fill-rule:nonzero;stroke:#ff7f0e;stroke-width:1;stroke-linecap:butt;stroke-linejoin:miter;stroke-miterlimit:10;stroke-dasharray:none;stroke-opacity:1"
         id="path1300" /><text
         transform="matrix(1,0,0,-1,259.21375,217.26237)"
         style="font-variant:normal;font-weight:normal;font-size:14px;font-family:'Fira Mono';-inkscape-font-specification:FiraMono-Regular;writing-mode:lr-tb;fill:#191970;fill-opacity:1;fill-rule:nonzero;stroke:none"
         id="text1304"><tspan
           x="0 8.3999996 16.799999 25.200001 33.599998 42"
           y="0"
           sodipodi:role="line"
           id="tspan1302">1-port</tspan></text><path
         d="m 231.01375,198.84987 h 6 v 6 h -6 z"
         style="fill:#2ca02c;fill-opacity:1;fill-rule:nonzero;stroke:#2ca02c;stroke-width:1;stroke-linecap:butt;stroke-linejoin:miter;stroke-miterlimit:10;stroke-dasharray:none;stroke-opacity:1"
         id="path1306" /><text
         transform="matrix(1,0,0,-1,259.21375,196.94987)"
         style="font-variant:normal;font-weight:normal;font-size:14px;font-family:'Fira Mono';-inkscape-font-specification:FiraMono-Regular;writing-mode:lr-tb;fill:#191970;fill-opacity:1;fill-rule:nonzero;stroke:none"
         id="text1310"><tspan
           x="0 8.3999996 16.799999 25.200001 33.599998 42 50.400002"
           y="0"
           sodipodi:role="line"
           id="tspan1308">2-ports</tspan></text><path
         d="m 231.01375,178.53737 h 6 v 6 h -6 z"
         style="fill:#d62728;fill-opacity:1;fill-rule:nonzero;stroke:#d62728;stroke-width:1;stroke-linecap:butt;stroke-linejoin:miter;stroke-miterlimit:10;stroke-dasharray:none;stroke-opacity:1"
         id="path1312" /><text
         transform="matrix(1,0,0,-1,259.21375,176.63737)"
         style="font-variant:normal;font-weight:normal;font-size:14px;font-family:'Fira Mono';-inkscape-font-specification:FiraMono-Regular;writing-mode:lr-tb;fill:#191970;fill-opacity:1;fill-rule:nonzero;stroke:none"
         id="text1316"><tspan
           x="0 8.3999996 16.799999 25.200001 33.599998 42 50.400002"
           y="0"
           sodipodi:role="line"
           id="tspan1314">4-ports</tspan></text><path
         d="m 231.01375,158.22487 h 6 v 6 h -6 z"
         style="fill:#9467bd;fill-opacity:1;fill-rule:nonzero;stroke:#9467bd;stroke-width:1;stroke-linecap:butt;stroke-linejoin:miter;stroke-miterlimit:10;stroke-dasharray:none;stroke-opacity:1"
         id="path1318" /><text
         transform="matrix(1,0,0,-1,259.21375,156.32487)"
         style="font-variant:normal;font-weight:normal;font-size:14px;font-family:'Fira Mono';-inkscape-font-specification:FiraMono-Regular;writing-mode:lr-tb;fill:#191970;fill-opacity:1;fill-rule:nonzero;stroke:none"
         id="text1322"><tspan
           x="0 8.3999996 16.799999 25.200001 33.599998 42 50.400002"
           y="0"
           sodipodi:role="line"
           id="tspan1320">8-ports</tspan></text></g><ellipse
       style="fill:none;stroke:#191970;stroke-width:2.25000006;stroke-linecap:square;stroke-miterlimit:4;stroke-dasharray:none"
       id="path1426"
       cx="102.8651"
       cy="-202.01381"
       transform="scale(1,-1)"
       rx="17.369013"
       ry="23.694838" /><text
       xml:space="preserve"
       style="font-size:18px;line-height:0.85;font-family:'Fira Sans';-inkscape-font-specification:'Fira Sans, Normal';stroke-width:0.75;font-weight:normal;font-style:normal;font-stretch:normal;font-variant:normal;font-variant-ligatures:normal;font-variant-caps:normal;font-variant-numeric:normal;font-variant-east-asian:normal;fill:#191970;fill-opacity:1"
       x="117.05126"
       y="-218.68344"
       id="text2302"
       transform="scale(1,-1)"><tspan
         sodipodi:role="line"
         id="tspan2300"
         style="font-size:18.00000045px;stroke-width:0.75;-inkscape-font-specification:'Fira Sans, Normal';font-family:'Fira Sans';font-weight:normal;font-style:normal;font-stretch:normal;font-variant:normal;font-variant-ligatures:normal;font-variant-caps:normal;font-variant-numeric:normal;font-variant-east-asian:normal;fill:#191970;fill-opacity:1"
         x="117.05126"
         y="-218.68344">L2</tspan></text><text
       xml:space="preserve"
       style="font-style:normal;font-variant:normal;font-weight:normal;font-stretch:normal;font-size:18px;line-height:0.85;font-family:'Fira Sans';-inkscape-font-specification:'Fira Sans, Normal';font-variant-ligatures:normal;font-variant-caps:normal;font-variant-numeric:normal;font-variant-east-asian:normal;fill:#1a86eb;fill-opacity:1;stroke-width:0.75"
       x="367.69708"
       y="-113.50041"
       id="text2302-4"
       transform="scale(1,-1)"><tspan
         sodipodi:role="line"
         id="tspan2300-6"
         style="font-style:normal;font-variant:normal;font-weight:normal;font-stretch:normal;font-size:18px;font-family:'Fira Sans';-inkscape-font-specification:'Fira Sans, Normal';font-variant-ligatures:normal;font-variant-caps:normal;font-variant-numeric:normal;font-variant-east-asian:normal;fill:#1a86eb;fill-opacity:1;stroke-width:0.75"
         x="367.69708"
         y="-113.50041">L2+L1</tspan></text><ellipse
       style="fill:none;stroke:#1a86eb;stroke-width:2.09345;stroke-linecap:square;stroke-miterlimit:4;stroke-dasharray:none;stroke-opacity:1"
       id="path6528"
       transform="matrix(0.97250529,-0.23288077,-0.25650612,-0.96654261,0,0)"
       ry="62.61985"
       rx="160.21255"
       cy="-147.83301"
       cx="219.3307" /></g></svg>
